<svg width="1287" height="211" viewBox="0 0 1287 211" fill="none" xmlns="http://www.w3.org/2000/svg">
<path d="M1 77.7827C28.3919 87.7894 46.1749 89.2432 86.0943 77.7827C103.296 72.0344 103.107 61.433 86.0943 59.6164C61.6031 74.4231 86.0943 116.464 122.272 134.3C238.958 191.827 258.168 151.624 314.881 167.101C516.42 210.148 373 233.5 373 167.101C373 132.699 392 41 452.5 59.6164C529.327 83.2568 787 84.8474 787 41C787 14.8608 765.211 -14.6392 680.711 14.8608C659.711 22.1922 617.763 66.0292 664 77.7827C745.5 98.5 748.368 67.1657 809.5 93C852.487 111.166 787 167.101 829.013 167.101C923.789 167.101 885.5 119 941 119C1075.36 119 1119.58 60.777 1093.5 41C1083.5 33.4166 1062.5 50 1048.5 77.7827C1048.5 77.7827 986.5 171 1026 181.5C1054 188.943 1093.5 186.069 1126.5 181.5C1230.5 167.101 1181.1 98.4592 1286 77.7827" stroke="#00BCFA" stroke-width="4"/>
</svg>
