<svg width="79" height="26" viewBox="0 0 79 26" fill="none" xmlns="http://www.w3.org/2000/svg">
<g clip-path="url(#clip0_66_392)">
<mask id="mask0_66_392" style="mask-type:luminance" maskUnits="userSpaceOnUse" x="0" y="0" width="79" height="26">
<path d="M79 0H0V26H79V0Z" fill="white"/>
</mask>
<g mask="url(#mask0_66_392)">
<path d="M12.2285 25.9367C5.48571 25.9367 0 20.4586 0 13.7253C0 6.99181 5.48571 1.51371 12.2285 1.51371C15.976 1.51371 17.6949 2.39213 18.3992 2.79474C19.1036 3.19735 20.0119 3.52676 21.5147 5.32022C23.5395 7.73685 23.4361 9.52476 23.5395 11.1764C23.5395 12.0342 23.3037 13.775 22.7609 15.0309C22.2968 16.1044 21.4859 17.1177 20.9192 17.7189C20.0611 18.6293 19.6117 18.9478 19.2272 18.5637C18.8427 18.1798 18.9965 18.3334 18.6889 18.0262C18.3043 17.6422 18.2274 17.6933 18.8427 17.1813C19.3041 16.7974 20.0732 15.8757 20.4577 15.0309C20.9805 13.8825 21.2581 12.9572 21.3038 11.8052C21.3038 6.4187 17.6225 3.95601 12.2285 3.95601C6.83451 3.95601 2.4457 8.33875 2.4457 13.7253C2.4457 19.1117 6.83451 23.4944 12.2285 23.4944C13.7571 23.4944 15.2204 23.1525 16.5774 22.4788C16.8678 22.3346 17.2037 22.3115 17.5111 22.4146C17.8187 22.5177 18.0725 22.7385 18.217 23.0285C18.3615 23.3186 18.3846 23.654 18.2814 23.9611C18.1781 24.2681 17.957 24.5216 17.6665 24.6659C15.9777 25.5068 14.1156 25.9418 12.2285 25.9367Z" fill="black"/>
<path d="M8.93976 20.1743C8.30515 20.1743 7.31483 20.1743 7.31483 20.1743H6.07685L6.38635 19.4016C6.38635 19.4016 6.56512 19.0197 6.69584 18.7835C6.95933 18.3074 7.15388 18.0677 7.46961 17.6244C8.00571 16.8717 8.93976 15.77 8.93976 15.77L9.40394 15.3064L11.3384 13.2975L13.737 10.9795L13.8143 10.848V10.6704L13.737 10.5931L13.5822 10.5158C13.5822 10.5158 12.4589 10.5764 11.261 10.5158C10.0631 10.4553 9.92877 10.3753 9.09446 10.5158C8.94251 10.5414 8.85774 10.5587 8.70757 10.5931C8.55541 10.628 8.32074 10.6935 8.32074 10.6935L7.93385 10.8249L7.54696 10.9795L6.69584 11.3657L5.84473 11.7521L7.70173 7.96599L8.93976 8.27505L10.3324 8.50686L11.4931 8.66142H12.6537H13.8143L15.1297 8.5841L15.9034 8.50686L16.2903 8.42961L16.5998 8.35236C16.5998 8.35236 16.8365 8.30919 16.9867 8.27505C17.1082 8.24747 17.2962 8.1978 17.2962 8.1978L17.7605 8.04324L18.3021 7.81143C18.3021 7.81143 18.2276 8.14778 18.1474 8.35236C18.034 8.64165 17.9221 8.78232 17.7605 9.04773C17.5906 9.32661 17.4947 9.48384 17.2962 9.74316C17.0494 10.0657 16.5998 10.5158 16.5998 10.5158C16.5998 10.5158 16.0811 11.0339 15.7487 11.3657C14.0566 13.0556 12.975 13.88 11.4157 15.6928C11.1081 16.0503 10.9169 16.2368 10.642 16.62C10.515 16.7969 10.4309 16.8895 10.3324 17.0836C10.2589 17.2286 10.2264 17.3148 10.1777 17.4699C10.1404 17.5887 10.1003 17.6546 10.1003 17.779C10.1003 17.9034 10.1269 18.0276 10.1777 18.0881C10.2286 18.1485 10.4592 18.2565 10.613 18.3334C10.7669 18.4101 11.2945 18.4618 11.3384 18.4744C11.3822 18.487 12.382 18.6289 12.382 18.6289L13.3818 18.7174C13.3818 18.7174 14.0987 18.7174 14.2786 18.7174C14.4585 18.7174 14.7251 18.673 15.2071 18.6289C15.6891 18.5848 16.7303 18.4261 17.6118 18.0261C18.4005 17.6682 19.4719 16.6817 19.4719 16.6817L19.919 18.5637C19.919 18.5637 20.5343 18.2565 18.6116 19.4854C18.0272 19.8319 17.2305 20.0979 16.6889 20.2534C16.1472 20.4088 15.0737 20.4838 14.4585 20.4838C13.8432 20.4838 13.5811 20.4666 12.9203 20.4071C12.2422 20.3459 11.5784 20.2969 11.1836 20.2516C10.7921 20.2066 10.5714 20.1909 10.1777 20.1743C9.69473 20.1538 9.42324 20.1743 8.93976 20.1743Z" fill="black"/>
<path d="M20.9195 23.7863C22.0239 23.7863 22.9192 22.8922 22.9192 21.7894C22.9192 20.6866 22.0239 19.7926 20.9195 19.7926C19.8152 19.7926 18.9199 20.6866 18.9199 21.7894C18.9199 22.8922 19.8152 23.7863 20.9195 23.7863Z" fill="black"/>
<path d="M33.4366 5.1644H30.94C30.6938 5.1644 30.4941 5.36373 30.4941 5.60961V25.4658C30.4941 25.7117 30.6938 25.911 30.94 25.911H33.4366C33.6828 25.911 33.8824 25.7117 33.8824 25.4658V5.60961C33.8824 5.36373 33.6828 5.1644 33.4366 5.1644Z" fill="black"/>
<path d="M52.9637 22.8836H30.94C30.6938 22.8836 30.4941 23.0829 30.4941 23.3288V25.4658C30.4941 25.7116 30.6938 25.9109 30.94 25.9109H52.9637C53.2099 25.9109 53.4095 25.7116 53.4095 25.4658V23.3288C53.4095 23.0829 53.2099 22.8836 52.9637 22.8836Z" fill="black"/>
<path d="M48.2382 5.1644H37.0035C36.7572 5.1644 36.5576 5.36373 36.5576 5.60961V7.39043C36.5576 7.63634 36.7572 7.83565 37.0035 7.83565H48.2382C48.4844 7.83565 48.684 7.63634 48.684 7.39043V5.60961C48.684 5.36373 48.4844 5.1644 48.2382 5.1644Z" fill="black"/>
<path d="M52.2724 2.32909C52.1887 2.21117 52.2731 2.04795 52.4179 2.04795H61.1675C61.4137 2.04795 61.6133 2.24728 61.6133 2.49316V3.91782C61.6133 4.16369 61.4137 4.36303 61.1675 4.36303H53.9479C53.8035 4.36303 53.668 4.29311 53.5844 4.17545L52.2724 2.32909Z" fill="black"/>
<path d="M60.8994 7.83558H53.1421C52.8959 7.83558 52.6963 8.03489 52.6963 8.2808V10.0617C52.6963 10.3075 52.8959 10.5068 53.1421 10.5068H60.8994C61.1456 10.5068 61.3453 10.3075 61.3453 10.0617V8.2808C61.3453 8.03489 61.1456 7.83558 60.8994 7.83558Z" fill="black"/>
<path d="M60.6319 13.3562H53.1421C52.8959 13.3562 52.6963 13.5555 52.6963 13.8014V15.5822C52.6963 15.8281 52.8959 16.0274 53.1421 16.0274H60.6319C60.8781 16.0274 61.0778 15.8281 61.0778 15.5822V13.8014C61.0778 13.5555 60.8781 13.3562 60.6319 13.3562Z" fill="black"/>
<path d="M74.8093 2.04795H64.0201C63.7738 2.04795 63.5742 2.24728 63.5742 2.49316V3.82877C63.5742 4.07466 63.7738 4.27398 64.0201 4.27398H74.8093C75.0552 4.27398 75.2551 4.07466 75.2551 3.82877V2.49316C75.2551 2.24728 75.0552 2.04795 74.8093 2.04795Z" fill="black"/>
<path d="M74.6306 6.5H64.0201C63.7738 6.5 63.5742 6.69932 63.5742 6.94522V8.54798C63.5742 8.79382 63.7738 8.99313 64.0201 8.99313H74.6306C74.8766 8.99313 75.0765 8.79382 75.0765 8.54798V6.94522C75.0765 6.69932 74.8766 6.5 74.6306 6.5Z" fill="black"/>
<path d="M75.0767 10.685H69.8159C69.5693 10.685 69.3701 10.8843 69.3701 11.1301V12.911C69.3701 13.1568 69.5693 13.3562 69.8159 13.3562H75.0767C75.3226 13.3562 75.5225 13.1568 75.5225 12.911V11.1301C75.5225 10.8843 75.3226 10.685 75.0767 10.685Z" fill="black"/>
<path d="M75.077 16.0274H70.9751C70.7292 16.0274 70.5293 16.2267 70.5293 16.4726V18.2534C70.5293 18.4993 70.7292 18.6987 70.9751 18.6987H75.077C75.3229 18.6987 75.5228 18.4993 75.5228 18.2534V16.4726C75.5228 16.2267 75.3229 16.0274 75.077 16.0274Z" fill="black"/>
<path d="M69.4592 16.0274H64.0201C63.7738 16.0274 63.5742 16.2267 63.5742 16.4726V18.2534C63.5742 18.4993 63.7738 18.6987 64.0201 18.6987H69.4592C69.7052 18.6987 69.9051 18.4993 69.9051 18.2534V16.4726C69.9051 16.2267 69.7052 16.0274 69.4592 16.0274Z" fill="black"/>
<path d="M75.0772 23.0617H62.0591C61.8129 23.0617 61.6133 23.261 61.6133 23.5069V25.4658C61.6133 25.7117 61.8129 25.911 62.0591 25.911H75.0772C75.3231 25.911 75.5231 25.7117 75.5231 25.4658V23.5069C75.5231 23.261 75.3231 23.0617 75.0772 23.0617Z" fill="black"/>
<path d="M67.8541 10.685H64.0201C63.7738 10.685 63.5742 10.8843 63.5742 11.1301V12.911C63.5742 13.1568 63.7738 13.3562 64.0201 13.3562H67.8541C68.1003 13.3562 68.2999 13.1568 68.2999 12.911V11.1301C68.2999 10.8843 68.1003 10.685 67.8541 10.685Z" fill="black"/>
<path d="M48.2382 10.3288H37.0035C36.7572 10.3288 36.5576 10.5281 36.5576 10.774V12.5548C36.5576 12.8007 36.7572 13 37.0035 13H48.2382C48.4844 13 48.684 12.8007 48.684 12.5548V10.774C48.684 10.5281 48.4844 10.3288 48.2382 10.3288Z" fill="black"/>
<path d="M48.2386 15.226H37.1822C36.936 15.226 36.7363 15.4253 36.7363 15.6712V17.1849C36.7363 17.4308 36.936 17.6301 37.1822 17.6301H48.2386C48.4848 17.6301 48.6844 17.4308 48.6844 17.1849V15.6712C48.6844 15.4253 48.4848 15.226 48.2386 15.226Z" fill="black"/>
<path d="M48.2379 5.1644H46.4546C46.2084 5.1644 46.0088 5.36373 46.0088 5.60961V20.9247C46.0088 21.1706 46.2084 21.3699 46.4546 21.3699H48.2379C48.4841 21.3699 48.6837 21.1706 48.6837 20.9247V5.60961C48.6837 5.36373 48.4841 5.1644 48.2379 5.1644Z" fill="black"/>
<path d="M38.6084 5.1644H37.0035C36.7572 5.1644 36.5576 5.36373 36.5576 5.60961V12.5548C36.5576 12.8007 36.7572 13 37.0035 13H38.6084C38.8546 13 39.0542 12.8007 39.0542 12.5548V5.60961C39.0542 5.36373 38.8546 5.1644 38.6084 5.1644Z" fill="black"/>
<path d="M58.8486 2.49316C58.8486 2.24728 59.0483 2.04795 59.2945 2.04795H61.1669C61.4131 2.04795 61.6127 2.24728 61.6127 2.49316V10.0617C61.6127 10.3075 61.4131 10.5069 61.1669 10.5069H59.2945C59.0483 10.5069 58.8486 10.3075 58.8486 10.0617V2.49316Z" fill="black"/>
<path d="M58.8486 2.49316C58.8486 2.24728 59.0483 2.04795 59.2945 2.04795H61.1669C61.4131 2.04795 61.6127 2.24728 61.6127 2.49316V10.0617C61.6127 10.3075 61.4131 10.5069 61.1669 10.5069H59.2945C59.0483 10.5069 58.8486 10.3075 58.8486 10.0617V2.49316Z" fill="black"/>
<path d="M63.5742 2.49316C63.5742 2.24728 63.7738 2.04795 64.0201 2.04795H64.9562H65.8925C66.1387 2.04795 66.3383 2.24728 66.3383 2.49316V8.54798C66.3383 8.79382 66.1387 8.99313 65.8925 8.99313H64.0201C63.7738 8.99313 63.5742 8.79382 63.5742 8.54798V2.49316Z" fill="black"/>
<path d="M63.5742 2.49316C63.5742 2.24728 63.7738 2.04795 64.0201 2.04795H64.9562H65.8925C66.1387 2.04795 66.3383 2.24728 66.3383 2.49316V8.54798C66.3383 8.79382 66.1387 8.99313 65.8925 8.99313H64.0201C63.7738 8.99313 63.5742 8.79382 63.5742 8.54798V2.49316Z" fill="black"/>
<path d="M72.5801 2.67123C72.5801 2.42535 72.7793 2.22602 73.0259 2.22602H74.8093C75.0552 2.22602 75.2551 2.42535 75.2551 2.67123V8.54791C75.2551 8.79382 75.0552 8.99313 74.8093 8.99313H73.0259C72.7793 8.99313 72.5801 8.79382 72.5801 8.54791V2.67123Z" fill="black"/>
<path d="M72.5801 2.67123C72.5801 2.42535 72.7793 2.22602 73.0259 2.22602H74.8093C75.0552 2.22602 75.2551 2.42535 75.2551 2.67123V8.54791C75.2551 8.79382 75.0552 8.99313 74.8093 8.99313H73.0259C72.7793 8.99313 72.5801 8.79382 72.5801 8.54791V2.67123Z" fill="black"/>
<path d="M72.9365 11.1301C72.9365 10.8843 73.1357 10.685 73.3824 10.685H75.0764C75.3223 10.685 75.5222 10.8843 75.5222 11.1301V18.2534C75.5222 18.4993 75.3223 18.6987 75.0764 18.6987H73.3824C73.1357 18.6987 72.9365 18.4993 72.9365 18.2534V11.1301Z" fill="black"/>
<path d="M72.9365 11.1301C72.9365 10.8843 73.1357 10.685 73.3824 10.685H75.0764C75.3223 10.685 75.5222 10.8843 75.5222 11.1301V18.2534C75.5222 18.4993 75.3223 18.6987 75.0764 18.6987H73.3824C73.1357 18.6987 72.9365 18.4993 72.9365 18.2534V11.1301Z" fill="black"/>
<path d="M63.5742 11.3972C63.5742 11.1514 63.7738 10.952 64.0201 10.952H65.625C65.8712 10.952 66.0708 11.1514 66.0708 11.3972V18.2534C66.0708 18.4993 65.8712 18.6987 65.625 18.6987H64.0201C63.7738 18.6987 63.5742 18.4993 63.5742 18.2534V11.3972Z" fill="black"/>
<path d="M63.5742 11.3972C63.5742 11.1514 63.7738 10.952 64.0201 10.952H65.625C65.8712 10.952 66.0708 11.1514 66.0708 11.3972V18.2534C66.0708 18.4993 65.8712 18.6987 65.625 18.6987H64.0201C63.7738 18.6987 63.5742 18.4993 63.5742 18.2534V11.3972Z" fill="black"/>
<path d="M67.4082 16.7397C67.4082 16.4939 67.6078 16.2945 67.854 16.2945H69.4592C69.7051 16.2945 69.905 16.4939 69.905 16.7397V23.5959C69.905 23.8417 69.7051 24.0411 69.4592 24.0411H67.854C67.6078 24.0411 67.4082 23.8417 67.4082 23.5959V16.7397Z" fill="black"/>
<path d="M67.4082 16.7397C67.4082 16.4939 67.6078 16.2945 67.854 16.2945H69.4592C69.7051 16.2945 69.905 16.4939 69.905 16.7397V23.5959C69.905 23.8417 69.7051 24.0411 69.4592 24.0411H67.854C67.6078 24.0411 67.4082 23.8417 67.4082 23.5959V16.7397Z" fill="black"/>
<path d="M69.3701 7.03423C69.3701 6.78836 69.57 6.58904 69.8159 6.58904H71.51C71.7559 6.58904 71.9558 6.78836 71.9558 7.03423V12.5548C71.9558 12.8006 71.7559 13 71.51 13H69.8159C69.57 13 69.3701 12.8006 69.3701 12.5548V7.03423Z" fill="black"/>
<path d="M69.3701 7.03423C69.3701 6.78836 69.57 6.58904 69.8159 6.58904H71.51C71.7559 6.58904 71.9558 6.78836 71.9558 7.03423V12.5548C71.9558 12.8006 71.7559 13 71.51 13H69.8159C69.57 13 69.3701 12.8006 69.3701 12.5548V7.03423Z" fill="black"/>
<path d="M55.1037 7.83558H53.1421C52.8959 7.83558 52.6963 8.03489 52.6963 8.2808V15.4041C52.6963 15.6499 52.8959 15.8493 53.1421 15.8493H55.1037C55.3499 15.8493 55.5496 15.6499 55.5496 15.4041V8.2808C55.5496 8.03489 55.3499 7.83558 55.1037 7.83558Z" fill="black"/>
<path d="M77.1127 23.0859C78.1548 23.0859 78.9997 22.2421 78.9997 21.2013C78.9997 20.1605 78.1548 19.3168 77.1127 19.3168C76.0705 19.3168 75.2256 20.1605 75.2256 21.2013C75.2256 22.2421 76.0705 23.0859 77.1127 23.0859Z" fill="black"/>
<path d="M35.1236 4.39731C36.3396 4.39731 37.3253 3.41294 37.3253 2.19866C37.3253 0.984374 36.3396 0 35.1236 0C33.9077 0 32.9219 0.984374 32.9219 2.19866C32.9219 3.41294 33.9077 4.39731 35.1236 4.39731Z" fill="black"/>
<path d="M58.5797 13.8219C58.5683 13.5652 58.7729 13.3489 59.0301 13.3489H60.6966C60.9133 13.3489 61.0977 13.5034 61.1276 13.7177C61.2505 14.6017 61.5002 16.8906 61.0715 18.5315C60.7638 19.7094 60.0493 21.751 58.7126 23.3214C57.9178 24.2551 56.6681 25.0227 55.6459 25.363C53.9672 25.9218 52.0894 25.9637 51.1459 25.9413C50.8434 25.9342 50.6552 25.6272 50.7727 25.3486L51.678 23.2012C51.7477 23.0362 51.9091 22.9287 52.0885 22.9223C52.5673 22.9051 53.5156 22.8425 54.0732 22.6147C55.6037 21.9894 56.3536 21.751 57.0613 20.6517C57.6215 19.7815 58.4567 17.9908 58.5553 16.961C58.6532 15.9381 58.6118 14.5421 58.5797 13.8219Z" fill="black"/>
</g>
</g>
<defs>
<clipPath id="clip0_66_392">
<rect width="79" height="26" fill="white"/>
</clipPath>
</defs>
</svg>
